<svg id="Capa_1" enable-background="new 0 0 512 512" height="512" viewBox="0 0 512 512" width="512" xmlns="http://www.w3.org/2000/svg"><g><g><path d="m456.969 407.139c27.744-39.712 44.031-88.02 44.031-140.139 0-135.31-109.69-245-245-245s-245 109.69-245 245c0 52.119 16.287 100.427 44.031 140.139z" fill="#222d5b"/></g><g><circle cx="256" cy="222" fill="#2d3c6b" r="180"/></g><g><path d="m429.558 352.438c-23.413-20.673-123.588-37.434-126.172-37.863h-94.772c-2.584.428-102.759 17.19-126.172 37.863-8.351 7.373-18.17 29.339-27.391 54.702 21.073 30.164 48.76 55.36 80.955 73.491h239.988c32.195-18.131 59.882-43.327 80.955-73.491-9.221-25.364-19.04-47.329-27.391-54.702z" fill="#73c3f9"/></g><g><path d="m318.291 317.265c-8.654-1.646-14.316-2.593-14.905-2.69h-94.772c-.587.097-6.224 1.04-14.843 2.679 1.996 2.662 25.125 32.414 62.013 32.414 37.264 0 60.899-30.284 62.507-32.403z" fill="#4fabf7"/></g><g><path d="m136.006 480.631h78.581c-63.53-62.434-69.553-149.674-69.738-152.606-25.754 6.589-51.864 15.104-62.407 24.413-8.351 7.373-18.17 29.339-27.391 54.702 21.073 30.163 48.76 55.359 80.955 73.491z" fill="#4fabf7"/></g><g><path d="m256 402.168-120 22.5v55.963c7.277 4.096 14.787 7.826 22.5 11.177h7.862l7.138 5.936c25.779 9.223 53.55 14.256 82.5 14.256s56.721-5.033 82.5-14.256l7.138-5.936h7.862c7.713-3.351 15.223-7.08 22.5-11.177v-55.963z" fill="#2d3c6b"/></g><g><path d="m286 480.628c-27.614 0-50-22.386-50-50v-24.71l-100 18.75v55.963c7.277 4.096 14.787 7.826 22.5 11.177h7.862l7.138 5.936c25.779 9.223 53.55 14.256 82.5 14.256s56.721-5.033 82.5-14.256l7.138-5.936h7.862c7.713-3.351 15.223-7.08 22.5-11.177v-.002h-90z" fill="#222d5b"/></g><g><path d="m346 447.168h-180c-4.142 0-7.5 3.358-7.5 7.5v37.139c4.919 2.137 9.92 4.119 15 5.937v-35.576h165v35.576c5.08-1.818 10.081-3.799 15-5.937v-37.139c0-4.142-3.358-7.5-7.5-7.5z" fill="#e9efff"/></g><g><g><path d="m353.5 480.628h-15v17.116c5.08-1.818 10.081-3.799 15-5.937z" fill="#dae2fe"/></g><g><path d="m173.5 497.744v-35.576h73.709c-3.609-4.433-6.467-9.497-8.396-15h-72.813c-4.142 0-7.5 3.358-7.5 7.5v37.139c4.919 2.137 9.92 4.119 15 5.937z" fill="#dae2fe"/></g></g><g><path d="m91.07 426.843v21.327c7.157 6.519 14.704 12.617 22.599 18.262l-12.035-41.103c-1.75-5.98-10.564-4.716-10.564 1.514z" fill="#2e8be6"/></g><g><path d="m420.93 426.843v21.327c-7.157 6.519-14.704 12.617-22.599 18.262l12.035-41.103c1.75-5.98 10.564-4.716 10.564 1.514z" fill="#4fabf7"/></g><g><path d="m303.386 220.734h-94.772v93.841s19.021 20.093 47.17 20.093 47.602-20.093 47.602-20.093z" fill="#fcad6d"/></g><g><path d="m208.614 220.734v93.841c94.723 0 94.772-53.4 94.772-53.4v-40.44h-94.772z" fill="#fd995b"/></g><g><path d="m331.058 159.567s10.385-25.285 28.897-19.415-.448 60.664-36.573 64.116z" fill="#fcad6d"/></g><g><path d="m180.942 159.567s-10.385-25.285-28.897-19.415.448 60.664 36.573 64.116z" fill="#fd995b"/></g><g><path d="m343.597 146.754c0 64.505-39.219 140.155-87.597 140.155s-87.597-75.651-87.597-140.155 39.218-110.884 87.597-110.884 87.597 46.38 87.597 110.884z" fill="#f9ba8f"/></g><g><path d="m208.403 146.754c0-55.33 28.856-97.321 67.597-108.148-6.424-1.795-13.119-2.737-20-2.737-48.379 0-87.597 46.38-87.597 110.885s39.219 140.155 87.597 140.155c6.881 0 13.576-1.535 20-4.346-38.741-16.952-67.597-80.479-67.597-135.809z" fill="#fcad6d"/></g><g><g><path d="m242.013 192.447 8.436-13.441c2.569-4.093 8.533-4.093 11.102 0l8.436 13.441c2.739 4.365-.398 10.038-5.551 10.038h-16.871c-5.154-.001-8.291-5.674-5.552-10.038z" fill="#fd995b"/></g></g><g><g><path d="m235.384 240.87h41.233c4.111-3.622 7.258-8.309 9.01-13.631 1.584-4.811-2.069-9.754-7.134-9.754h-44.985c-5.065 0-8.718 4.943-7.134 9.754 1.752 5.322 4.899 10.009 9.01 13.631z" fill="#0e1b41"/></g><g><path d="m276.616 240.87c-5.493 4.849-12.714 7.798-20.616 7.798s-15.124-2.948-20.616-7.798c5.5-4.849 12.714-7.798 20.616-7.798s15.116 2.949 20.616 7.798z" fill="#ff4155"/></g></g><g><path d="m310.999 162.085c.043-3.495-1.371-7.004-4.242-9.539-4.675-4.128-11.84-4.128-16.515 0-2.871 2.535-4.284 6.044-4.242 9.539.055 4.538 5.629 6.716 8.838 3.507 2.022-2.022 5.3-2.022 7.322 0 3.21 3.21 8.784 1.032 8.839-3.507z" fill="#0e1b41"/></g><g><path d="m201.001 162.085c-.043-3.495 1.371-7.004 4.242-9.539 4.675-4.128 11.84-4.128 16.515 0 2.871 2.535 4.284 6.044 4.242 9.539-.055 4.538-5.629 6.716-8.838 3.507-2.022-2.022-5.3-2.022-7.322 0-3.21 3.21-8.784 1.032-8.839-3.507z" fill="#0e1b41"/></g><g><path d="m256 0c-110.525 0-106.518 79.512-105.57 130.098.102 5.447 4.55 9.806 9.998 9.806h191.144c5.448 0 9.896-4.359 9.998-9.806.948-50.586 4.955-130.098-105.57-130.098z" fill="#dae2fe"/></g><g><path d="m225.998 90.861c-37.604-19.865-30.107-79.164-3.87-87.835-75.751 14.964-72.536 82.328-71.698 127.072.102 5.447 4.55 9.806 9.998 9.806h65.57z" fill="#bec9f7"/></g><g><path d="m350.113 139.904s-22.092-52.436-94.113-52.436-94.113 52.436-94.113 52.436 7.007 16.926 27.313 16.926 22.26-14.681 66.801-14.681 46.495 14.681 66.801 14.681c20.304 0 27.311-16.926 27.311-16.926z" fill="#e9efff"/></g><g><path d="m225.998 90.861c-48.337 11.609-64.111 49.043-64.111 49.043s7.007 16.926 27.313 16.926c8.044 0 13.209-2.305 19.282-5.087-15.328-26.917-10.206-53.253 17.516-60.882z" fill="#dae2fe"/></g><g><path d="m374.303 395.941-25.644 4.166-12.659-5.439h-40l-29.213 5.438-10.787-5.438h-40l-22.229 3.906-17.771-3.906h-35c-2.761 0-5 2.239-5 5v25l25.085-6.01 14.915 6.01h40l26.957-4.656 13.043 4.656h40l26.617-6.01 13.383 6.01h40v-25c0-1.489-.664-2.811-1.697-3.727z" fill="#e9efff"/></g><g><path d="m221 409.668c0-8.284 6.716-15 15-15h-20l-22.229 3.906-17.771-3.906h-35c-2.761 0-5 2.239-5 5v25l25.085-6.01 14.915 6.01h40l12.326-2.129c-4.382-2.619-7.326-7.395-7.326-12.871z" fill="#dae2fe"/></g><g><path d="m136 424.668h40l40-30h-40z" fill="#0e1b41"/></g><g><path d="m216 424.668h40l40-30h-40z" fill="#222d5b"/></g><g><path d="m224.013 418.658-8.013 6.01h20c-4.907 0-9.25-2.367-11.987-6.01z" fill="#0e1b41"/></g><g><path d="m371 394.668h-35l-40 30h40l38.303-28.727c-.882-.783-2.031-1.273-3.303-1.273z" fill="#222d5b"/></g><g><g><path d="m182.191 372.872 29.899-2.908 38.045-12.352 13.333-9.591 24.712-2.761 38.045-12.352 12.902-13.038h23.136c.7-1.19.923-2.653.463-4.069l-6.176-19.022c-.853-2.626-3.673-4.064-6.3-3.212l-33.289 10.808-13.153 10.2-24.892 2.152-38.045 12.352-12.978 12.352h-25.067l-38.045 12.352-9.568 13.038h-26.47c-.7 1.19-.923 2.653-.463 4.069l7.72 23.778 38.045-12.352z" fill="#e9efff"/></g><g><path d="m212.214 354.153c-1.443-4.444-.698-9.072 1.638-12.723h-11.025l-38.045 12.352-9.568 13.038h-26.47c-.7 1.19-.923 2.653-.463 4.069l7.72 23.778 38.045-12.352 8.146-9.444 29.899-2.908 19.023-6.176c-7.881 2.56-16.342-1.754-18.9-9.634z" fill="#dae2fe"/></g><g><path d="m131.492 364.59c-1.21.393-2.151 1.214-2.749 2.23l45.302 15.496 38.045-12.352-47.309-16.182z" fill="#0e1b41"/></g><g><path d="m202.826 341.43 38.046-12.351 47.309 16.182-38.046 12.351z" fill="#222d5b"/></g><g><path d="m316.962 304.375-38.045 12.352 47.309 16.182 33.289-10.808c1.21-.393 2.151-1.214 2.749-2.23z" fill="#222d5b"/></g><g><path d="m212.304 344.672c1.478-4.31 4.878-7.902 9.545-9.418l-19.023 6.176z" fill="#0e1b41"/></g></g><g><circle cx="136" cy="394.668" fill="#222d5b" r="15"/></g></g></svg>